<svg width="19" height="25" viewBox="0 0 19 25" fill="none" xmlns="http://www.w3.org/2000/svg">
<path d="M0.467288 0.056022H9.37273C10.6143 0.056022 11.7881 0.168892 12.8943 0.394632C14.0004 0.620371 14.9598 1.01542 15.7725 1.57976C16.6077 2.12154 17.2623 2.86648 17.7364 3.81459C18.233 4.74012 18.4813 5.91397 18.4813 7.33613C18.4813 8.73572 18.2556 9.90957 17.8041 10.8577C17.3526 11.8058 16.7319 12.562 15.9418 13.1264C15.1517 13.6907 14.2148 14.097 13.1313 14.3454C12.0477 14.5711 10.8739 14.684 9.60976 14.684H5.7496V24.0296H0.467288V0.056022ZM5.7496 10.2143H9.27115C9.7452 10.2143 10.1967 10.1692 10.6256 10.0789C11.0771 9.98858 11.4721 9.84185 11.8107 9.63868C12.1719 9.41294 12.4541 9.11948 12.6572 8.7583C12.883 8.37454 12.9959 7.90048 12.9959 7.33613C12.9959 6.72664 12.8491 6.24129 12.5557 5.88011C12.2848 5.49635 11.9236 5.20289 11.4721 4.99973C11.0432 4.79656 10.5579 4.6724 10.0161 4.62726C9.47431 4.55953 8.95511 4.52567 8.45848 4.52567H5.7496V10.2143Z" fill="#1D242D"/>
</svg>
